<?xml version="1.0" encoding="UTF-8"?>
<svg xmlns="http://www.w3.org/2000/svg" width="1100" height="420" viewBox="0 0 1100 420">
  <defs>
    <marker id="arrow" markerWidth="10" markerHeight="10" refX="6" refY="3" orient="auto">
      <path d="M0,0 L0,6 L6,3 z" fill="#333" />
    </marker>
  </defs>
  <rect x="0" y="0" width="1100" height="420" fill="#ffffff"/>
<text x="550" y="36" font-family="Arial" font-size="22" font-weight="bold" text-anchor="middle" fill="#000">Lot Lifecycle with Reinspection &amp; Disputes</text>
<rect x="40" y="80" width="140" height="60" rx="10" ry="10" fill="#f9fbfd" stroke="#333"/>
<text x="110" y="115" font-family="Arial" font-size="16" font-weight="normal" text-anchor="middle" fill="#000">Open</text>
<rect x="220" y="80" width="160" height="60" rx="10" ry="10" fill="#f9fbfd" stroke="#333"/>
<text x="300" y="115" font-family="Arial" font-size="16" font-weight="normal" text-anchor="middle" fill="#000">InQA</text>
<rect x="420" y="80" width="180" height="60" rx="10" ry="10" fill="#f9fbfd" stroke="#333"/>
<text x="510" y="115" font-family="Arial" font-size="16" font-weight="normal" text-anchor="middle" fill="#000">Approved</text>
<rect x="640" y="80" width="140" height="60" rx="10" ry="10" fill="#f9fbfd" stroke="#333"/>
<text x="710" y="115" font-family="Arial" font-size="16" font-weight="normal" text-anchor="middle" fill="#000">Paid</text>
<rect x="810" y="80" width="220" height="60" rx="10" ry="10" fill="#f9fbfd" stroke="#333"/>
<text x="920" y="115" font-family="Arial" font-size="16" font-weight="normal" text-anchor="middle" fill="#000">Refunded / Closed</text>
<line x1="180" y1="110" x2="220" y2="110" stroke="#333" marker-end="url(#arrow)"/>
<line x1="380" y1="110" x2="420" y2="110" stroke="#333" marker-end="url(#arrow)"/>
<line x1="600" y1="110" x2="640" y2="110" stroke="#333" marker-end="url(#arrow)"/>
<line x1="780" y1="110" x2="810" y2="110" stroke="#333" marker-end="url(#arrow)"/>
<rect x="420" y="200" width="210" height="60" rx="10" ry="10" fill="#f9fbfd" stroke="#333"/>
<text x="525" y="235" font-family="Arial" font-size="14" font-weight="normal" text-anchor="middle" fill="#000">Reinspection Challenge</text>
<line x1="300" y1="140" x2="435" y2="200" stroke="#333" marker-end="url(#arrow)"/>
<line x1="510" y1="140" x2="525" y2="200" stroke="#333" marker-end="url(#arrow)"/>
<text x="525" y="265" font-family="Arial" font-size="12" font-weight="normal" text-anchor="middle" fill="#000">sample indices + deadline</text>
<rect x="700" y="200" width="180" height="60" rx="10" ry="10" fill="#f9fbfd" stroke="#333"/>
<text x="790" y="235" font-family="Arial" font-size="14" font-weight="normal" text-anchor="middle" fill="#000">Response / Slash</text>
<line x1="630" y1="230" x2="700" y2="230" stroke="#333" marker-end="url(#arrow)"/>
<text x="790" y="265" font-family="Arial" font-size="12" font-weight="normal" text-anchor="middle" fill="#000">QA responds → continue; no response → slash</text>
<rect x="420" y="320" width="160" height="60" rx="10" ry="10" fill="#f9fbfd" stroke="#333"/>
<text x="500" y="355" font-family="Arial" font-size="14" font-weight="normal" text-anchor="middle" fill="#000">Disputed</text>
<line x1="510" y1="140" x2="500" y2="320" stroke="#333" marker-end="url(#arrow)"/>
<line x1="580" y1="350" x2="710" y2="110" stroke="#333" marker-end="url(#arrow)"/>
<text x="630" y="330" font-family="Arial" font-size="12" font-weight="normal" text-anchor="middle" fill="#000">2-of-3 resolve</text>
</svg>