<?xml version="1.0" encoding="UTF-8"?>
<svg xmlns="http://www.w3.org/2000/svg" width="1100" height="260" viewBox="0 0 1100 260">
  <defs>
    <marker id="arrow" markerWidth="10" markerHeight="10" refX="6" refY="3" orient="auto">
      <path d="M0,0 L0,6 L6,3 z" fill="#333" />
    </marker>
  </defs>
  <rect x="0" y="0" width="1100" height="260" fill="#ffffff"/>
<text x="550" y="36" font-family="Arial" font-size="22" font-weight="bold" text-anchor="middle" fill="#000">Settlement Timing — Frequent Micro-Transactions</text>
<line x1="60" y1="70" x2="1040" y2="70" stroke="#333"/><text x="1055" y="75" font-family="Arial" font-size="12" font-weight="normal" text-anchor="start" fill="#000">time →</text>
<rect x="80" y="100" width="160" height="30" rx="10" ry="10" fill="#f9fbfd" stroke="#333"/>
<text x="160" y="120" font-family="Arial" font-size="12" font-weight="normal" text-anchor="middle" fill="#000">Lot#1 produce</text>
<rect x="250" y="100" width="110" height="30" rx="10" ry="10" fill="#f9fbfd" stroke="#333"/>
<text x="305" y="120" font-family="Arial" font-size="12" font-weight="normal" text-anchor="middle" fill="#000">QA</text>
<rect x="370" y="100" width="140" height="30" rx="10" ry="10" fill="#eef7ff" stroke="#333"/>
<text x="440" y="120" font-family="Arial" font-size="12" font-weight="normal" text-anchor="middle" fill="#000">$ settle</text>
<rect x="280" y="150" width="160" height="30" rx="10" ry="10" fill="#f9fbfd" stroke="#333"/>
<text x="360" y="170" font-family="Arial" font-size="12" font-weight="normal" text-anchor="middle" fill="#000">Lot#2 produce</text>
<rect x="450" y="150" width="110" height="30" rx="10" ry="10" fill="#f9fbfd" stroke="#333"/>
<text x="505" y="170" font-family="Arial" font-size="12" font-weight="normal" text-anchor="middle" fill="#000">QA</text>
<rect x="570" y="150" width="140" height="30" rx="10" ry="10" fill="#eef7ff" stroke="#333"/>
<text x="640" y="170" font-family="Arial" font-size="12" font-weight="normal" text-anchor="middle" fill="#000">$ settle</text>
<rect x="480" y="200" width="160" height="30" rx="10" ry="10" fill="#f9fbfd" stroke="#333"/>
<text x="560" y="220" font-family="Arial" font-size="12" font-weight="normal" text-anchor="middle" fill="#000">Lot#3 produce</text>
<rect x="650" y="200" width="110" height="30" rx="10" ry="10" fill="#f9fbfd" stroke="#333"/>
<text x="705" y="220" font-family="Arial" font-size="12" font-weight="normal" text-anchor="middle" fill="#000">QA</text>
<rect x="770" y="200" width="140" height="30" rx="10" ry="10" fill="#eef7ff" stroke="#333"/>
<text x="840" y="220" font-family="Arial" font-size="12" font-weight="normal" text-anchor="middle" fill="#000">$ settle</text>
</svg>