<svg xmlns="http://www.w3.org/2000/svg" width="1100" height="300">
  <defs>
    <marker id="arrow" markerWidth="10" markerHeight="10" refX="6" refY="3" orient="auto">
      <path d="M0,0 L0,6 L6,3 z" fill="#333" />
    </marker>
    <style>
      .box { fill: #f9fbfd; stroke: #333; rx: 10; ry: 10; }
      .sub { fill: #eef7ff; }
      .title { font-family: Arial; font-size: 20px; font-weight: bold; }
      .lbl { font-family: Arial; font-size: 13px; }
      .small { font-family: Arial; font-size: 11px; }
      .mono { font-family: 'Courier New', monospace; font-size: 12px; }
    </style>
  </defs>

  <text x="550" y="40" class="title" text-anchor="middle">Settlement Timing — Frequent Micro-Transactions</text>
  <line x1="60" y1="80" x2="1040" y2="80" stroke="#333"/>
  <text x="1055" y="85" class="small">time →</text>

  <rect x="80" y="120" width="160" height="30" class="box"/><text x="160" y="140" class="small" text-anchor="middle">Lot#1 produce</text>
  <rect x="250" y="120" width="110" height="30" class="box"/><text x="305" y="140" class="small" text-anchor="middle">QA</text>
  <rect x="370" y="120" width="140" height="30" class="box sub"/><text x="440" y="140" class="small" text-anchor="middle">$ settle</text>

  <rect x="280" y="170" width="160" height="30" class="box"/><text x="360" y="190" class="small" text-anchor="middle">Lot#2 produce</text>
  <rect x="450" y="170" width="110" height="30" class="box"/><text x="505" y="190" class="small" text-anchor="middle">QA</text>
  <rect x="570" y="170" width="140" height="30" class="box sub"/><text x="640" y="190" class="small" text-anchor="middle">$ settle</text>

  <rect x="480" y="220" width="160" height="30" class="box"/><text x="560" y="240" class="small" text-anchor="middle">Lot#3 produce</text>
  <rect x="650" y="220" width="110" height="30" class="box"/><text x="705" y="240" class="small" text-anchor="middle">QA</text>
  <rect x="770" y="220" width="140" height="30" class="box sub"/><text x="840" y="240" class="small" text-anchor="middle">$ settle</text>

</svg>