<?xml version="1.0" encoding="UTF-8"?>
<svg xmlns="http://www.w3.org/2000/svg" width="1100" height="780" viewBox="0 0 1100 780">
  <defs>
    <marker id="arrow" markerWidth="10" markerHeight="10" refX="6" refY="3" orient="auto">
      <path d="M0,0 L0,6 L6,3 z" fill="#333" />
    </marker>
    <marker id="arrow-ret" markerWidth="10" markerHeight="10" refX="6" refY="3" orient="auto">
      <path d="M0,0 L0,6 L6,3 z" fill="#2563eb" />
    </marker>
    <marker id="arrow-red" markerWidth="10" markerHeight="10" refX="6" refY="3" orient="auto">
      <path d="M0,0 L0,6 L6,3 z" fill="#dc2626" />
    </marker>
    <style>
      .title    { font-family: Arial, sans-serif; font-size: 20px; font-weight: bold; fill:#0f172a; }
      .subtitle { font-family: Arial, sans-serif; font-size: 12px; fill:#64748b; }
      .actor    { font-family: Arial, sans-serif; font-size: 14px; font-weight: bold; fill:#0f172a; }
      .msg      { font-family: Arial, sans-serif; font-size: 12px; fill:#334155; }
      .note     { font-family: Arial, sans-serif; font-size: 11px; fill:#475569; }
      .note-b   { font-family: Arial, sans-serif; font-size: 11px; fill:#475569; font-style: italic; }
      .sep      { font-family: Arial, sans-serif; font-size: 13px; font-weight: bold; fill:#64748b; }
    </style>
  </defs>

  <rect x="0" y="0" width="1100" height="780" fill="#ffffff"/>

  <!-- Title -->
  <text x="550" y="30" class="title" text-anchor="middle">Reinspection Challenge — Sequence</text>
  <text x="550" y="48" class="subtitle" text-anchor="middle">request_reinspect() / qa_reinspect_respond() / challenge_default_slash()</text>

  <!-- Actors -->
  <rect x="90" y="62" width="140" height="30" rx="6" ry="6" fill="#f1f5f9" stroke="#334155" stroke-width="1.5"/>
  <text x="160" y="82" class="actor" text-anchor="middle">Requester</text>
  <text x="160" y="97" class="note" text-anchor="middle">(OEM / Factory / QA)</text>

  <rect x="470" y="62" width="160" height="30" rx="6" ry="6" fill="#f1f5f9" stroke="#334155" stroke-width="1.5"/>
  <text x="550" y="82" class="actor" text-anchor="middle">Fairfoundry</text>

  <rect x="870" y="62" width="140" height="30" rx="6" ry="6" fill="#f1f5f9" stroke="#334155" stroke-width="1.5"/>
  <text x="940" y="82" class="actor" text-anchor="middle">QA Provider</text>

  <!-- Lifelines -->
  <line x1="160" y1="100" x2="160" y2="760" stroke="#cbd5e1" stroke-dasharray="4,3"/>
  <line x1="550" y1="100" x2="550" y2="760" stroke="#cbd5e1" stroke-dasharray="4,3"/>
  <line x1="940" y1="100" x2="940" y2="760" stroke="#cbd5e1" stroke-dasharray="4,3"/>

  <!-- ═══ REQUEST PHASE ═══ -->
  <rect x="40" y="115" width="1020" height="20" fill="#f8fafc"/>
  <text x="550" y="130" class="sep" text-anchor="middle">REQUEST PHASE</text>

  <!-- 1. Rate limit check -->
  <text x="350" y="155" class="msg" text-anchor="middle">request_reinspect(sample_size, deadline, seed)</text>
  <line x1="160" y1="160" x2="545" y2="160" stroke="#333" stroke-width="1.5" marker-end="url(#arrow)"/>

  <!-- Internal: rate limit -->
  <rect x="470" y="175" width="160" height="30" rx="4" ry="4" fill="#fefce8" stroke="#a16207" stroke-width="1"/>
  <text x="550" y="195" class="note" text-anchor="middle">check_challenge_rate_limit()</text>
  <text x="550" y="210" class="note-b" text-anchor="middle">max 5 per hour per address</text>

  <!-- Internal: compute fee -->
  <rect x="470" y="220" width="160" height="30" rx="4" ry="4" fill="#fefce8" stroke="#a16207" stroke-width="1"/>
  <text x="550" y="240" class="note" text-anchor="middle">challenge_cost = lot_value</text>
  <text x="550" y="255" class="note" text-anchor="middle">* 10 bps (0.1%)</text>

  <!-- Fee deduction -->
  <text x="350" y="273" class="note" text-anchor="middle">deduct fee from OEM escrow (or transfer from requester)</text>
  <line x1="545" y1="278" x2="165" y2="278" stroke="#2563eb" stroke-width="1" stroke-dasharray="4,2" marker-end="url(#arrow-ret)"/>

  <!-- Internal: lock stake + sample -->
  <rect x="470" y="290" width="160" height="48" rx="4" ry="4" fill="#fefce8" stroke="#a16207" stroke-width="1"/>
  <text x="550" y="307" class="note" text-anchor="middle">lock 20% of min_qa_stake</text>
  <text x="550" y="322" class="note" text-anchor="middle">deterministic_sample(seed)</text>

  <!-- Return indices to requester -->
  <text x="350" y="355" class="msg" text-anchor="middle">return: sample_indices[]</text>
  <line x1="545" y1="360" x2="165" y2="360" stroke="#2563eb" stroke-width="1.5" marker-end="url(#arrow-ret)"/>

  <!-- Emit event -->
  <text x="750" y="380" class="note" text-anchor="middle">emit ReinspectRequested</text>

  <!-- ═══ HAPPY PATH: QA Responds ═══ -->
  <rect x="40" y="398" width="1020" height="20" fill="#f0fdf4"/>
  <text x="550" y="413" class="sep" text-anchor="middle" fill="#16a34a">HAPPY PATH — QA responds before due_by</text>

  <!-- QA responds -->
  <text x="750" y="440" class="msg" text-anchor="middle">qa_reinspect_respond(pass, fail, proof_hash)</text>
  <line x1="935" y1="445" x2="555" y2="445" stroke="#333" stroke-width="1.5" marker-end="url(#arrow)"/>

  <!-- Validation -->
  <rect x="470" y="455" width="160" height="30" rx="4" ry="4" fill="#fefce8" stroke="#a16207" stroke-width="1"/>
  <text x="550" y="475" class="note" text-anchor="middle">pass + fail == sample_size?</text>

  <!-- Status update -->
  <text x="550" y="505" class="note" text-anchor="middle">status → Responded</text>
  <text x="550" y="520" class="note" text-anchor="middle">unlock QA stake (20% of min_qa_stake)</text>

  <!-- Refund -->
  <text x="350" y="540" class="msg" text-anchor="middle">refund challenge_cost to requester</text>
  <line x1="545" y1="545" x2="165" y2="545" stroke="#16a34a" stroke-width="1.5" stroke-dasharray="4,2" marker-end="url(#arrow)"/>

  <text x="750" y="563" class="note" text-anchor="middle">emit ReinspectResponded</text>

  <!-- ═══ SLASH PATH: QA misses deadline ═══ -->
  <rect x="40" y="580" width="1020" height="20" fill="#fef2f2"/>
  <text x="550" y="595" class="sep" text-anchor="middle" fill="#dc2626">SLASH PATH — QA misses due_by deadline</text>

  <!-- Any party calls slash -->
  <text x="350" y="620" class="msg" text-anchor="middle">challenge_default_slash(lot_id, slash_bps)</text>
  <line x1="160" y1="625" x2="545" y2="625" stroke="#dc2626" stroke-width="1.5" marker-end="url(#arrow-red)"/>
  <text x="350" y="638" class="note-b" text-anchor="middle">any party can call; slash_bps &lt;= 2000 (20%)</text>

  <!-- Guard -->
  <rect x="470" y="648" width="160" height="30" rx="4" ry="4" fill="#fef2f2" stroke="#dc2626" stroke-width="1"/>
  <text x="550" y="668" class="note" text-anchor="middle">now > due_by? status == Open?</text>

  <!-- Slash calculation -->
  <text x="550" y="697" class="note" text-anchor="middle">slash = qa_stake * slash_bps / 10000</text>

  <!-- Split 50/50 -->
  <text x="350" y="718" class="msg" text-anchor="middle">50% slash → challenger</text>
  <line x1="545" y1="722" x2="165" y2="722" stroke="#dc2626" stroke-width="1.5" stroke-dasharray="4,2" marker-end="url(#arrow-red)"/>

  <text x="750" y="718" class="note" text-anchor="middle">50% slash → OEM</text>

  <!-- Final state -->
  <text x="550" y="745" class="note" text-anchor="middle">status → Expired, unlock QA stake, qa_stake -= slash</text>
  <text x="550" y="760" class="note" text-anchor="middle">total_successful_challenges += 1, emit ReinspectDefaultSlashed</text>
</svg>
