<?xml version="1.0" encoding="UTF-8"?>
<svg xmlns="http://www.w3.org/2000/svg" width="1100" height="560" viewBox="0 0 1100 560">
  <defs>
    <marker id="arrow" markerWidth="10" markerHeight="10" refX="6" refY="3" orient="auto">
      <path d="M0,0 L0,6 L6,3 z" fill="#333" />
    </marker>
  </defs>
  <rect x="0" y="0" width="1100" height="560" fill="#ffffff"/>
<text x="550" y="36" font-family="Arial" font-size="22" font-weight="bold" text-anchor="middle" fill="#000">Fairfoundry — System Architecture</text>
<rect x="40" y="70" width="260" height="90" rx="10" ry="10" fill="#f9fbfd" stroke="#333"/>
<text x="170" y="100" font-family="Arial" font-size="18" font-weight="normal" text-anchor="middle" fill="#000">OEM</text>
<text x="170" y="125" font-family="Arial" font-size="12" font-weight="normal" text-anchor="middle" fill="#000">Funds escrow • Reinspect/Dispute</text>
<rect x="420" y="70" width="260" height="90" rx="10" ry="10" fill="#f9fbfd" stroke="#333"/>
<text x="550" y="100" font-family="Arial" font-size="18" font-weight="normal" text-anchor="middle" fill="#000">FACTORY</text>
<text x="550" y="125" font-family="Arial" font-size="12" font-weight="normal" text-anchor="middle" fill="#000">Creates lots • Receives payouts</text>
<rect x="800" y="70" width="260" height="90" rx="10" ry="10" fill="#f9fbfd" stroke="#333"/>
<text x="930" y="100" font-family="Arial" font-size="18" font-weight="normal" text-anchor="middle" fill="#000">QA Provider (Fairbuild)</text>
<text x="930" y="125" font-family="Arial" font-size="12" font-weight="normal" text-anchor="middle" fill="#000">Posts QA results/serials/attestations • Staked</text>
<rect x="120" y="200" width="860" height="250" rx="10" ry="10" fill="#eef7ff" stroke="#333"/>
<text x="550" y="230" font-family="Arial" font-size="16" font-weight="normal" text-anchor="middle" fill="#000">Fairfoundry (Soroban on Stellar)</text>
<text x="550" y="252" font-family="Arial" font-size="12" font-weight="normal" text-anchor="middle" fill="#000">Escrow &amp; payouts • ERS/ pricing timelocks • Disputes (2-of-3)</text>
<text x="550" y="272" font-family="Arial" font-size="12" font-weight="normal" text-anchor="middle" fill="#000">QA stake/slash • Serials Merkle root • Testbench attestation • Reinspection</text>
<rect x="150" y="310" width="210" height="120" rx="10" ry="10" fill="#f9fbfd" stroke="#333"/>
<text x="255" y="335" font-family="Arial" font-size="14" font-weight="normal" text-anchor="middle" fill="#000">Escrow &amp; Payouts</text>
<text x="255" y="355" font-family="Arial" font-size="12" font-weight="normal" text-anchor="middle" fill="#000">Price/tiers • penalties • partials</text>
<rect x="380" y="310" width="210" height="120" rx="10" ry="10" fill="#f9fbfd" stroke="#333"/>
<text x="485" y="335" font-family="Arial" font-size="14" font-weight="normal" text-anchor="middle" fill="#000">QA Commitments</text>
<text x="485" y="355" font-family="Arial" font-size="12" font-weight="normal" text-anchor="middle" fill="#000">Results root • Serials root • Attestation</text>
<rect x="610" y="310" width="210" height="120" rx="10" ry="10" fill="#f9fbfd" stroke="#333"/>
<text x="715" y="335" font-family="Arial" font-size="14" font-weight="normal" text-anchor="middle" fill="#000">Reinspection</text>
<text x="715" y="355" font-family="Arial" font-size="12" font-weight="normal" text-anchor="middle" fill="#000">Seed → sample indices → deadline</text>
<rect x="840" y="310" width="120" height="120" rx="10" ry="10" fill="#f9fbfd" stroke="#333"/>
<text x="900" y="335" font-family="Arial" font-size="14" font-weight="normal" text-anchor="middle" fill="#000">Governance</text>
<text x="900" y="355" font-family="Arial" font-size="12" font-weight="normal" text-anchor="middle" fill="#000">2-of-3 + timelock</text>
<line x1="170" y1="160" x2="300" y2="200" stroke="#333" marker-end="url(#arrow)"/>
<line x1="550" y1="160" x2="550" y2="200" stroke="#333" marker-end="url(#arrow)"/>
<line x1="930" y1="160" x2="800" y2="200" stroke="#333" marker-end="url(#arrow)"/>
<rect x="80" y="480" width="300" height="60" rx="10" ry="10" fill="#f9fbfd" stroke="#333"/>
<text x="230" y="510" font-family="Arial" font-size="13" font-weight="normal" text-anchor="middle" fill="#000">Asset Client (SAC): XLM / USDC</text>
<rect x="720" y="480" width="300" height="60" rx="10" ry="10" fill="#f9fbfd" stroke="#333"/>
<text x="870" y="510" font-family="Arial" font-size="13" font-weight="normal" text-anchor="middle" fill="#000">Optional Oracle (FX/price feeds)</text>
</svg>