<svg xmlns="http://www.w3.org/2000/svg" width="1000" height="220">
  <line x1="40" y1="40" x2="960" y2="40" stroke="#333"/>
  <text x="970" y="45" font-size="12" font-family="Arial">time →</text>

  <rect x="60" y="70" width="140" height="24" fill="#f5f5f5" stroke="#333"/><text x="130" y="86" text-anchor="middle" font-family="Arial" font-size="12">Lot#1 produce</text>
  <rect x="210" y="70" width="100" height="24" fill="#f5f5f5" stroke="#333"/><text x="260" y="86" text-anchor="middle" font-family="Arial" font-size="12">QA</text>
  <rect x="320" y="70" width="120" height="24" fill="#eef7ff" stroke="#333"/><text x="380" y="86" text-anchor="middle" font-family="Arial" font-size="12">$ settle</text>

  <rect x="250" y="110" width="140" height="24" fill="#f5f5f5" stroke="#333"/><text x="320" y="126" text-anchor="middle" font-family="Arial" font-size="12">Lot#2 produce</text>
  <rect x="400" y="110" width="100" height="24" fill="#f5f5f5" stroke="#333"/><text x="450" y="126" text-anchor="middle" font-family="Arial" font-size="12">QA</text>
  <rect x="510" y="110" width="120" height="24" fill="#eef7ff" stroke="#333"/><text x="570" y="126" text-anchor="middle" font-family="Arial" font-size="12">$ settle</text>

  <rect x="430" y="150" width="140" height="24" fill="#f5f5f5" stroke="#333"/><text x="500" y="166" text-anchor="middle" font-family="Arial" font-size="12">Lot#3 produce</text>
  <rect x="580" y="150" width="100" height="24" fill="#f5f5f5" stroke="#333"/><text x="630" y="166" text-anchor="middle" font-family="Arial" font-size="12">QA</text>
  <rect x="690" y="150" width="120" height="24" fill="#eef7ff" stroke="#333"/><text x="750" y="166" text-anchor="middle" font-family="Arial" font-size="12">$ settle</text>
</svg>
