<?xml version="1.0" encoding="UTF-8"?>
<svg xmlns="http://www.w3.org/2000/svg" width="1100" height="560" viewBox="0 0 1100 560">
  <defs>
    <marker id="arrow" markerWidth="10" markerHeight="10" refX="6" refY="3" orient="auto">
      <path d="M0,0 L0,6 L6,3 z" fill="#333" />
    </marker>
    <style>
      .box { fill:#f9fbfd; stroke:#333; rx:10; ry:10; }
      .sub { fill:#eef7ff; }
      .title { font-family: Arial; font-size: 20px; font-weight: bold; }
      .lbl { font-family: Arial; font-size: 14px; }
      .small { font-family: Arial; font-size: 12px; }
    </style>
  </defs>
  <rect x="0" y="0" width="1100" height="560" fill="#ffffff"/>
<text x="550.0" y="36" class="title" text-anchor="middle">Fairfoundry — System Architecture</text>
<rect x="60" y="80" width="240" height="90" class="box"/>
<text x="180" y="110" class="lbl" text-anchor="middle">OEM</text>
<text x="180" y="132" class="small" text-anchor="middle">Funds escrow • Reinspect/Dispute</text>
<rect x="430" y="80" width="240" height="90" class="box"/>
<text x="550" y="110" class="lbl" text-anchor="middle">FACTORY</text>
<text x="550" y="132" class="small" text-anchor="middle">Creates lots • Receives payouts</text>
<rect x="800" y="80" width="240" height="90" class="box"/>
<text x="920" y="110" class="lbl" text-anchor="middle">QA Provider (Fairbuild)</text>
<text x="920" y="132" class="small" text-anchor="middle">QA results • Serials • Attestation • Staked</text>
<rect x="120" y="220" width="860" height="250" class="box sub"/>
<text x="550" y="248" class="lbl" text-anchor="middle">Fairfoundry (Soroban on Stellar)</text>
<text x="550" y="270" class="small" text-anchor="middle">Escrow &amp; payouts • ERS/pricing timelocks • Disputes (2-of-3)</text>
<text x="550" y="290" class="small" text-anchor="middle">QA stake/slash • Serials Merkle root • Testbench attestation • Reinspection</text>
<rect x="160" y="330" width="220" height="120" class="box"/>
<text x="270" y="355" class="lbl" text-anchor="middle">Escrow &amp; Payouts</text>
<text x="270" y="377" class="small" text-anchor="middle">Price/tiers • penalties • partials</text>
<rect x="410" y="330" width="220" height="120" class="box"/>
<text x="520" y="355" class="lbl" text-anchor="middle">QA Commitments</text>
<text x="520" y="377" class="small" text-anchor="middle">Results root • Serials root • Attestation</text>
<rect x="660" y="330" width="220" height="120" class="box"/>
<text x="770" y="355" class="lbl" text-anchor="middle">Reinspection</text>
<text x="770" y="377" class="small" text-anchor="middle">Seed → sample indices → deadline</text>
<rect x="900" y="330" width="60" height="120" class="box"/>
<text x="930" y="355" class="lbl" text-anchor="middle">Gov</text>
<text x="930" y="377" class="small" text-anchor="middle">2-of-3</text>
<path d="M 180 170 L 180 220 L 300 220" fill="none" stroke="#333" marker-end="url(#arrow)"/>
<path d="M 550 170 L 550 220 L 550 220" fill="none" stroke="#333" marker-end="url(#arrow)"/>
<path d="M 920 170 L 920 220 L 800 220" fill="none" stroke="#333" marker-end="url(#arrow)"/>
<rect x="80" y="500" width="300" height="40" class="box"/>
<text x="230" y="525" class="lbl" text-anchor="middle">Asset Client (SAC): XLM / USDC</text>
<rect x="720" y="500" width="300" height="40" class="box"/>
<text x="870" y="525" class="lbl" text-anchor="middle">Optional Oracle (FX/price feeds)</text>
</svg>